<?xml version="1.0" encoding="utf-8"?>
<!-- Generator: Adobe Illustrator 16.0.0, SVG Export Plug-In . SVG Version: 6.00 Build 0)  -->
<!DOCTYPE svg PUBLIC "-//W3C//DTD SVG 1.1//EN" "http://www.w3.org/Graphics/SVG/1.1/DTD/svg11.dtd">
<svg version="1.1" id="Layer_1" xmlns="http://www.w3.org/2000/svg" xmlns:xlink="http://www.w3.org/1999/xlink" x="0px" y="0px"
	 width="495px" height="356px" viewBox="0 0 495 356" enable-background="new 0 0 495 356" xml:space="preserve">
<g>
	<path fill-rule="evenodd" clip-rule="evenodd" fill="#FD4400" d="M132.863,248.104l8.288-2.201
		c1.595-0.439,2.896-1.283,3.869-2.529c0.954-1.247,1.449-2.677,1.449-4.291c0-1.045-0.202-2.018-0.605-2.915
		c-0.224-0.512-0.498-0.986-0.824-1.421c-0.235-0.312-0.498-0.604-0.79-0.871c-0.678-0.66-1.449-1.174-2.329-1.54
		c-0.88-0.386-1.797-0.569-2.769-0.569c-0.752,0-1.356,0.073-1.815,0.221l-8.067,2.2c-0.537,0.146-1.037,0.333-1.5,0.56
		c-0.992,0.488-1.817,1.163-2.479,2.025c-0.953,1.247-1.448,2.695-1.448,4.346c0,1.045,0.183,1.999,0.568,2.897
		c0.385,0.898,0.88,1.668,1.522,2.31c1.302,1.357,2.933,2.035,4.895,2.035C131.617,248.359,132.295,248.287,132.863,248.104"/>
	<path fill-rule="evenodd" clip-rule="evenodd" fill="#FFB50E" d="M197.965,288.678c-1.448,0.605-2.989,0.917-4.602,0.917
		s-3.135-0.312-4.584-0.917c-1.448-0.604-2.713-1.448-3.795-2.53c-1.1-1.101-1.98-2.365-2.604-3.813
		c-0.623-1.431-0.935-2.952-0.935-4.565c0-1.596,0.312-3.117,0.935-4.565c0.624-1.431,1.503-2.695,2.604-3.814
		c1.082-1.063,2.347-1.907,3.795-2.512c1.449-0.605,2.971-0.917,4.584-0.917s3.154,0.312,4.602,0.917
		c1.449,0.604,2.714,1.448,3.777,2.512c1.119,1.119,1.98,2.384,2.585,3.814c0.605,1.448,0.917,2.97,0.917,4.565
		c0,1.613-0.312,3.135-0.917,4.565c-0.605,1.448-1.466,2.713-2.585,3.813C200.679,287.229,199.414,288.073,197.965,288.678
		 M181.391,301.036c3.758,1.925,7.755,2.896,11.973,2.896c3.521,0,6.876-0.678,10.084-2.035c3.208-1.356,5.996-3.245,8.398-5.647
		c2.438-2.438,4.327-5.226,5.665-8.397c1.339-3.172,2.017-6.527,2.017-10.084c0-3.539-0.678-6.913-2.035-10.121
		c-1.357-3.209-3.245-6.015-5.647-8.453c-2.402-2.401-5.189-4.29-8.398-5.647c-3.208-1.356-6.564-2.035-10.084-2.035
		c-3.465,0-6.803,0.66-9.993,2.018c-3.172,1.338-5.978,3.189-8.379,5.555c-2.42,2.402-4.346,5.171-5.739,8.325
		c-1.394,3.153-2.108,6.472-2.145,9.938v37.11c0,1.045,0.183,2.018,0.586,2.934c0.386,0.917,0.936,1.706,1.614,2.384
		c0.642,0.697,1.411,1.211,2.31,1.596c0.899,0.366,1.815,0.568,2.787,0.568c2.054,0,3.722-0.716,5.061-2.164
		c1.284-1.394,1.926-3.153,1.926-5.317V301.036z"/>
	<path fill-rule="evenodd" clip-rule="evenodd" fill="#FD4400" d="M95.377,257.104c0-0.972-0.202-1.889-0.568-2.769
		c-0.385-0.881-0.898-1.669-1.54-2.347c-0.679-0.643-1.448-1.156-2.329-1.522c-0.88-0.385-1.797-0.568-2.769-0.568H71.688v-6.876
		c0-0.972-0.22-1.907-0.624-2.786c-0.421-0.899-0.953-1.688-1.631-2.366c-0.697-0.642-1.485-1.155-2.402-1.54
		c-0.917-0.366-1.852-0.568-2.824-0.568c-0.953,0-1.888,0.202-2.769,0.568c-0.862,0.385-1.632,0.898-2.273,1.54
		c-0.678,0.679-1.21,1.467-1.577,2.366c-0.385,0.879-0.568,1.814-0.568,2.786v34.746c0,3.557,0.678,6.931,2.036,10.14
		c1.356,3.189,3.246,5.995,5.647,8.397c2.402,2.401,5.189,4.29,8.397,5.646c3.209,1.357,6.583,2.036,10.122,2.036
		c3.264,0,6.308-0.532,9.149-1.613c2.824-1.064,5.354-2.678,7.573-4.823c0.825-0.825,1.449-1.778,1.907-2.86
		c0.44-1.063,0.66-2.163,0.66-3.264c0-1.76-0.66-3.337-1.98-4.73c-0.568-0.604-1.265-1.082-2.072-1.43
		c-0.807-0.33-1.596-0.514-2.384-0.514c-1.907,0-3.704,0.807-5.427,2.421c-1.833,1.687-4.309,2.53-7.426,2.53
		c-1.595,0-3.099-0.294-4.511-0.899c-1.394-0.587-2.622-1.43-3.704-2.548c-1.063-1.063-1.889-2.329-2.476-3.777
		c-0.568-1.449-0.843-2.988-0.843-4.602V263.98h16.483c0.972,0,1.889-0.184,2.769-0.551c0.88-0.348,1.65-0.861,2.329-1.503
		C94.663,260.606,95.377,258.992,95.377,257.104"/>
	<g>
		<defs>
			<path id="SVGID_1_" d="M78.389,14.145 M78.389,223.993L78.389,223.993c-11.741,0-21.346-9.605-21.346-21.346v-21.346v-8.113
				V85.231c-5.289,5.014-10.607,9.991-15.911,14.987c-8.545,8.049-22.1,7.713-30.176-0.806c-8.077-8.521-7.73-22.118,0.806-30.176
				l24.896-23.504l25.999-24.629l0.016-0.017l0.016-0.017l0.015-0.017l0.016-0.017l0.016-0.017l0.004-0.004
				c0.84-0.908,1.759-1.743,2.743-2.495l0.01-0.008c0.104-0.079,0.207-0.156,0.312-0.233l0.083-0.061l0.302-0.215l0.03-0.021
				l0.186-0.128l0.174-0.117l0.014-0.009l0.188-0.125c0.107-0.07,0.216-0.139,0.325-0.208l0.091-0.057l0.316-0.192l0.093-0.055
				l0.304-0.176l0.033-0.019l0.198-0.111l0.012-0.006l0.185-0.101l0.002-0.001l0.201-0.106l0.024-0.012l0.294-0.151l0.139-0.069
				l0.277-0.135l0.233-0.109L69.712,16l0.298-0.131l0.162-0.069l0.322-0.132l0.175-0.069l0.333-0.127l0.156-0.057
				c0.117-0.042,0.234-0.084,0.353-0.125l0.116-0.04c0.128-0.043,0.258-0.085,0.388-0.126l0.08-0.026
				c0.14-0.043,0.281-0.085,0.423-0.126l0.046-0.014l0.007-0.002l0.027-0.008c0.143-0.041,0.286-0.08,0.429-0.117l0.113-0.029
				c0.133-0.034,0.267-0.067,0.4-0.098l0.093-0.022c0.14-0.032,0.28-0.063,0.421-0.092l0.083-0.017
				c0.156-0.032,0.313-0.063,0.471-0.091l0.017-0.003l0.028-0.005c0.154-0.027,0.31-0.053,0.465-0.078l0.07-0.011
				c0.157-0.024,0.315-0.046,0.473-0.066l0.038-0.005c0.162-0.021,0.323-0.04,0.486-0.056l0.031-0.003l0.024-0.002
				c0.168-0.018,0.338-0.032,0.508-0.045l0.017-0.001c0.167-0.013,0.333-0.023,0.501-0.032l0.065-0.002
				c0.156-0.008,0.313-0.014,0.47-0.018l0.063-0.002c0.175-0.004,0.35-0.007,0.525-0.007c11.74,0,21.345,9.606,21.345,21.346v9.271
				v128.426v8.113v21.346C99.734,214.388,90.129,223.993,78.389,223.993z"/>
		</defs>
		<clipPath id="SVGID_2_">
			<use xlink:href="#SVGID_1_"  overflow="visible"/>
		</clipPath>
		<linearGradient id="SVGID_3_" gradientUnits="userSpaceOnUse" x1="51.7119" y1="31.4731" x2="50.6919" y2="252.0136">
			<stop  offset="0" style="stop-color:#00D90E"/>
			<stop  offset="1" style="stop-color:#10AE3D"/>
		</linearGradient>
		<rect x="2.879" y="14.145" clip-path="url(#SVGID_2_)" fill="url(#SVGID_3_)" width="96.854" height="209.848"/>
	</g>
	<g>
		<defs>
			<path id="SVGID_4_" d="M280.68,223.993h-91.813c-10.296,0-20.159,2.04-28.132-6.37l0,0c-2.427-2.561-4.091-5.577-5.001-8.765
				c-0.603-1.967-0.929-4.053-0.929-6.211c0-5.429,2.055-10.401,5.424-14.178c15.927-17.859,42.333-39.91,60.518-57.147l0.283-0.27
				l0.297-0.281l0.299-0.285l0.01-0.009l0.301-0.287l0.02-0.02l0.301-0.288l0.032-0.03l0.301-0.287l0.043-0.042l0.3-0.287
				l0.056-0.054l0.297-0.285l0.069-0.067l0.293-0.282l0.083-0.08l0.29-0.279l0.097-0.094l0.285-0.274l0.112-0.108l0.278-0.269
				l0.128-0.124l0.272-0.263l0.144-0.139l0.424-0.411l0.256-0.249l0.177-0.172l0.247-0.241l0.194-0.188l0.238-0.231l0.211-0.206
				l0.228-0.222l0.229-0.224l0.935-0.915l0.193-0.189l0.285-0.28l0.181-0.177l0.303-0.299l0.49-0.483l0.155-0.152l0.342-0.337
				l0.501-0.496l0.126-0.125l0.38-0.377l0.112-0.11l0.4-0.397l0.097-0.096l0.419-0.417l0.082-0.081l0.439-0.438l0.065-0.065
				l0.458-0.458l0.05-0.049l0.478-0.479l0.034-0.033l0.498-0.5l0.017-0.016l0.517-0.521l0,0l0.52-0.524l0.017-0.017l0.505-0.51
				l0.033-0.034l0.49-0.496l0.051-0.052l0.475-0.482l0.067-0.068l0.459-0.467l0.084-0.086l0.443-0.452l0.102-0.104l0.426-0.436
				l0.12-0.122l0.409-0.42l0.136-0.14l0.392-0.404l0.154-0.159l0.375-0.388l0.17-0.176l0.358-0.371l0.187-0.194l0.341-0.354
				l0.204-0.212l0.323-0.336l0.22-0.23l0.305-0.319l0.237-0.249l0.287-0.301l0.252-0.265l0.27-0.284l0.268-0.283l0.251-0.266
				l0.003-0.003l0.498-0.529l0.016-0.017l0.299-0.318l0.215-0.229l0.314-0.335l0.481-0.516l0.045-0.048l0.18-0.193l0.342-0.369
				l0.163-0.176l0.355-0.385l0.145-0.157l0.369-0.401l0.127-0.139l0.381-0.417l0.111-0.121l0.393-0.433l0.095-0.103l0.404-0.447
				l0.078-0.086l0.415-0.462l0.062-0.068l0.426-0.476l0.046-0.05l0.436-0.49l0.03-0.033l0.444-0.503l0.015-0.017l0.453-0.516
				c10.307-11.77,15.188-21.784,6.064-37.22c-4.441-7.514-11.447-12.502-19.182-14.49c-7.783-2-16.356-1.016-23.873,3.427
				c-6.526,3.857-11.146,9.649-13.551,16.172c-0.461,1.251-0.737,2.549-1.264,3.752c-3.35,7.657-10.993,13.006-19.885,13.006
				c-11.983,0-21.697-9.714-21.697-21.697c0-3.693,0.728-6.13,1.977-9.598c5.71-15.857,16.731-29.871,32.298-39.072
				c17.764-10.5,38.138-12.796,56.715-8.021c18.625,4.787,35.396,16.632,45.897,34.399c27.252,46.105-2.531,84.636-37.807,115.015
				l-26.985,25.581h50.604c11.74,0,21.345,9.605,21.345,21.346S292.42,223.993,280.68,223.993"/>
		</defs>
		<clipPath id="SVGID_5_">
			<use xlink:href="#SVGID_4_"  overflow="visible"/>
		</clipPath>
		<linearGradient id="SVGID_6_" gradientUnits="userSpaceOnUse" x1="240.5884" y1="25.002" x2="235.1483" y2="252.2929">
			<stop  offset="0" style="stop-color:#FFD000"/>
			<stop  offset="1" style="stop-color:#FFB50E"/>
		</linearGradient>
		<rect x="154.805" y="1.532" clip-path="url(#SVGID_5_)" fill="url(#SVGID_6_)" width="167.315" height="224.501"/>
	</g>
	<path fill-rule="evenodd" clip-rule="evenodd" fill="#FD4400" d="M377.91,85.077l36.696-34.787h-50.604
		c-11.739,0-21.345-9.605-21.345-21.346s9.605-21.345,21.345-21.345h107.834c8.871,1.319,14.597,6.325,17.112,15.134
		c0.604,1.967,0.929,4.053,0.929,6.211c0,11.126-6.671,15.139-13.889,21.98l-33.565,31.82c18.184,8.216,31.375,20.021,39.01,34.051
		c22.459,41.261-6.527,96.997-51.245,108.49c-18.577,4.774-38.951,2.479-56.715-8.021c-15.566-9.2-26.588-23.215-32.298-39.072
		c-1.249-3.468-1.977-5.906-1.977-9.599c0-11.983,9.714-21.697,21.696-21.697c8.893,0,16.535,5.35,19.885,13.006
		c0.527,1.203,0.804,2.501,1.264,3.753c2.405,6.523,7.025,12.315,13.551,16.172c7.518,4.443,16.091,5.428,23.873,3.428
		c7.735-1.988,14.741-6.976,19.183-14.491c11.546-19.533-3.041-45.568-25.385-46.58c-4.87-0.22-11.296-0.107-20.492-0.299
		c-0.441,0.003-0.884-0.006-1.324-0.03l-0.022-0.001c-5.264-0.287-10.432-2.498-14.322-6.602v0
		C369.027,106.732,369.391,93.153,377.91,85.077"/>
	<path fill="#FD4400" d="M271.278,319.604l-0.469-0.076c-4.17-0.697-8.225-1.91-11.385-3.994c-6.015-4.254-0.689-12.431,5.719-8.699
		c2.422,1.598,6.262,2.404,10.188,2.813c4.169,0.433,8.386,0.407,11.308,0.39c1.368-0.01,2.521-0.016,3.531,0.054
		c4.981,0.345,7.712,3.555,4.214,7.907c-2.684,3.339-4.366,5.862-7.301,14.512c-1.552,4.576-3.557,4.584-5.615,3.965
		c-1.888-0.568-3.907-1.48-3.883-3.843c0.008-0.802,0.145-1.732,0.445-2.81c-19.79,15.746-46.915,22.807-68.246,22.213
		c-9.979-0.277-19.92-2-29.31-5.423c-14.688-5.355-27.064-14.516-36.361-27.103c-4.271-5.782,4.141-11.105,8.616-5.239
		c4.463,5.852,9.899,10.82,16.071,14.822c22.16,14.367,51.782,15.282,76.123,6.267c7.611-2.818,14.852-6.645,21.387-11.446
		C268.171,322.547,269.771,321.157,271.278,319.604"/>
	<path fill-rule="evenodd" clip-rule="evenodd" fill="#FFB50E" d="M222.467,278.264v18.042c0,0.972,0.184,1.888,0.587,2.75
		c0.385,0.844,0.935,1.595,1.614,2.255c0.642,0.642,1.412,1.137,2.31,1.504c0.898,0.349,1.815,0.531,2.787,0.531
		c1.943,0,3.594-0.678,4.951-2.035c0.642-0.623,1.137-1.356,1.503-2.199c0.348-0.862,0.532-1.798,0.532-2.806v-17.455
		c0.037-1.761,0.403-3.411,1.082-4.987c0.678-1.577,1.632-2.989,2.842-4.199c1.173-1.21,2.548-2.164,4.089-2.842
		c1.54-0.679,3.172-1.046,4.933-1.082h0.329c0.99,0,1.962-0.184,2.86-0.532c0.917-0.366,1.724-0.861,2.402-1.503
		c1.43-1.431,2.145-3.136,2.145-5.098c0-2.127-0.659-3.832-1.961-5.134c-1.303-1.302-3.117-1.962-5.446-1.962h-0.439
		c-3.612,0.073-7.041,0.807-10.287,2.2c-3.245,1.394-6.087,3.318-8.563,5.739c-2.512,2.476-4.492,5.336-5.94,8.581
		C223.348,271.26,222.578,274.669,222.467,278.264"/>
	<path fill-rule="evenodd" clip-rule="evenodd" fill="#FD4400" d="M276.783,288.678c-1.448-0.604-2.714-1.448-3.795-2.53
		c-1.101-1.101-1.962-2.365-2.604-3.813c-0.623-1.431-0.935-2.952-0.935-4.565c0-1.596,0.312-3.117,0.935-4.565
		c0.643-1.431,1.504-2.695,2.604-3.814c1.081-1.063,2.347-1.907,3.795-2.512c1.448-0.605,2.97-0.917,4.547-0.917
		c1.596,0,3.136,0.312,4.621,0.917c1.467,0.604,2.731,1.448,3.813,2.512c1.101,1.119,1.962,2.384,2.567,3.814
		c0.604,1.448,0.916,2.97,0.916,4.565c0,1.613-0.312,3.135-0.916,4.565c-0.605,1.448-1.467,2.713-2.567,3.813
		c-1.082,1.082-2.347,1.926-3.813,2.53c-1.485,0.605-3.025,0.917-4.621,0.917C279.753,289.595,278.231,289.283,276.783,288.678
		 M255.11,277.769c0,3.557,0.679,6.912,2.035,10.103c1.357,3.19,3.265,5.978,5.703,8.379c2.438,2.438,5.226,4.327,8.397,5.666
		c3.172,1.356,6.527,2.017,10.084,2.017c3.539,0,6.913-0.678,10.121-2.035c3.209-1.356,6.015-3.245,8.397-5.647
		c2.439-2.438,4.327-5.226,5.666-8.397c1.357-3.172,2.017-6.527,2.017-10.084c0-3.539-0.678-6.913-2.035-10.121
		c-1.356-3.209-3.245-6.015-5.647-8.453c-2.383-2.401-5.188-4.29-8.397-5.647c-3.208-1.356-6.582-2.035-10.121-2.035
		c-3.557,0-6.912,0.66-10.084,2.018c-3.172,1.338-5.959,3.227-8.397,5.665s-4.346,5.244-5.703,8.453
		C255.789,270.855,255.11,274.229,255.11,277.769z"/>
	<path fill-rule="evenodd" clip-rule="evenodd" fill="#FD4400" d="M346.901,272.763c0.642,1.375,0.99,2.806,1.026,4.309v19.289
		c0,1.979,0.716,3.612,2.146,4.95c0.643,0.642,1.412,1.137,2.292,1.504c0.88,0.349,1.815,0.531,2.806,0.531
		c0.972,0,1.889-0.183,2.75-0.531c0.862-0.367,1.614-0.862,2.256-1.504c1.319-1.338,1.98-2.971,1.98-4.95v-19.344
		c0-3.429-0.68-6.711-2.054-9.828c-1.394-3.117-3.301-5.849-5.722-8.214c-2.438-2.365-5.243-4.199-8.416-5.501
		c-3.172-1.302-6.49-1.962-9.955-1.962c-3.447,0-6.711,0.66-9.792,1.962c-3.08,1.302-5.794,3.136-8.159,5.501
		s-4.198,5.097-5.537,8.214c-1.32,3.117-1.98,6.399-1.98,9.828v19.344c0,1.943,0.733,3.575,2.201,4.95
		c0.678,0.642,1.467,1.137,2.365,1.504c0.898,0.349,1.833,0.531,2.786,0.531c1.944,0,3.594-0.678,4.951-2.035
		c1.356-1.302,2.035-2.951,2.035-4.95V276.76c0.036-1.504,0.348-2.934,0.935-4.271c0.605-1.339,1.394-2.513,2.402-3.521
		c0.972-0.972,2.127-1.723,3.484-2.291c1.355-0.551,2.805-0.825,4.309-0.825c1.503,0,2.97,0.293,4.4,0.861
		c1.43,0.568,2.695,1.375,3.813,2.42C345.361,270.159,346.26,271.369,346.901,272.763"/>
	<path fill-rule="evenodd" clip-rule="evenodd" fill="#FFB50E" d="M365.777,243.022v34.746c0,3.557,0.678,6.931,2.035,10.14
		c1.356,3.189,3.245,5.995,5.646,8.397c2.402,2.401,5.189,4.29,8.398,5.646c3.209,1.357,6.582,2.036,10.121,2.036
		c3.264,0,6.308-0.532,9.149-1.613c2.823-1.064,5.354-2.678,7.572-4.823c0.825-0.825,1.448-1.778,1.907-2.86
		c0.44-1.063,0.66-2.163,0.66-3.264c0-1.76-0.66-3.337-1.98-4.73c-0.568-0.604-1.266-1.082-2.072-1.43
		c-0.807-0.33-1.595-0.514-2.383-0.514c-1.907,0-3.704,0.807-5.428,2.421c-1.834,1.687-4.309,2.53-7.426,2.53
		c-1.596,0-3.099-0.294-4.511-0.899c-1.394-0.587-2.622-1.43-3.703-2.548c-1.064-1.063-1.889-2.329-2.476-3.777
		c-0.568-1.449-0.844-2.988-0.844-4.602V263.98h16.483c0.973,0,1.889-0.184,2.769-0.551c0.881-0.348,1.65-0.861,2.329-1.503
		c1.394-1.32,2.108-2.935,2.108-4.822c0-0.972-0.202-1.889-0.568-2.769c-0.385-0.881-0.898-1.669-1.54-2.347
		c-0.679-0.643-1.448-1.156-2.329-1.522c-0.88-0.385-1.796-0.568-2.769-0.568h-16.483v-6.876c0-0.972-0.22-1.907-0.624-2.786
		c-0.421-0.899-0.953-1.688-1.631-2.366c-0.696-0.642-1.485-1.155-2.402-1.54c-0.917-0.366-1.852-0.568-2.823-0.568
		c-0.954,0-1.889,0.202-2.769,0.568c-0.862,0.385-1.633,0.898-2.274,1.54c-0.678,0.679-1.21,1.467-1.576,2.366
		C365.96,241.115,365.777,242.051,365.777,243.022"/>
	<path fill-rule="evenodd" clip-rule="evenodd" fill="#FFB50E" d="M436.833,265.96c1.596,0,3.135,0.312,4.62,0.917
		c1.468,0.604,2.732,1.448,3.814,2.512c1.1,1.119,1.962,2.384,2.567,3.814c0.604,1.448,0.916,2.97,0.916,4.565
		c0,1.613-0.312,3.135-0.916,4.565c-0.605,1.448-1.468,2.713-2.567,3.813c-1.082,1.082-2.347,1.926-3.814,2.53
		c-1.485,0.605-3.024,0.917-4.62,0.917c-1.577,0-3.099-0.312-4.547-0.917c-1.448-0.604-2.714-1.448-3.796-2.53
		c-1.1-1.101-1.962-2.365-2.604-3.813c-0.623-1.431-0.935-2.952-0.935-4.565c0-1.596,0.312-3.117,0.935-4.565
		c0.642-1.431,1.504-2.695,2.604-3.814c1.082-1.063,2.348-1.907,3.796-2.512C433.734,266.271,435.256,265.96,436.833,265.96
		 M412.648,267.647c-1.356,3.208-2.035,6.582-2.035,10.121c0,3.557,0.679,6.912,2.035,10.103c1.357,3.19,3.264,5.978,5.702,8.379
		c2.438,2.438,5.226,4.327,8.397,5.666c3.173,1.356,6.528,2.017,10.085,2.017c3.539,0,6.912-0.678,10.121-2.035
		c3.209-1.356,6.014-3.245,8.397-5.647c2.438-2.438,4.327-5.226,5.666-8.397c1.356-3.172,2.017-6.527,2.017-10.084
		c0-3.539-0.679-6.913-2.035-10.121c-1.356-3.209-3.245-6.015-5.647-8.453c-2.384-2.401-5.188-4.29-8.397-5.647
		c-3.209-1.356-6.582-2.035-10.121-2.035c-3.557,0-6.912,0.66-10.085,2.018c-3.172,1.338-5.959,3.227-8.397,5.665
		S414.006,264.438,412.648,267.647z"/>
	<path fill-rule="evenodd" clip-rule="evenodd" fill="#FFB50E" d="M470.539,290.823c-0.678,0.679-1.229,1.467-1.613,2.365
		c-0.403,0.898-0.586,1.833-0.586,2.805c0,1.999,0.732,3.74,2.199,5.208c0.643,0.678,1.412,1.21,2.311,1.576
		c0.898,0.386,1.834,0.568,2.842,0.568c1.009,0,1.962-0.183,2.843-0.568c0.897-0.366,1.687-0.898,2.365-1.576
		c1.467-1.468,2.199-3.209,2.199-5.208c0-0.972-0.183-1.906-0.586-2.805c-0.385-0.898-0.936-1.687-1.613-2.365
		c-0.679-0.679-1.468-1.211-2.384-1.613c-0.917-0.385-1.852-0.587-2.824-0.587c-0.972,0-1.906,0.202-2.823,0.587
		C471.951,289.612,471.182,290.145,470.539,290.823"/>
	<path fill-rule="evenodd" clip-rule="evenodd" fill="#FFB50E" d="M470.374,282.994c0.643,0.642,1.394,1.155,2.256,1.521
		c0.861,0.385,1.778,0.568,2.732,0.568c0.971,0,1.906-0.184,2.823-0.568c0.917-0.366,1.705-0.88,2.347-1.521
		c1.394-1.412,2.09-3.117,2.09-5.171v-37.643c0-0.972-0.183-1.906-0.568-2.806c-0.366-0.88-0.88-1.668-1.521-2.365
		c-1.394-1.394-3.08-2.09-5.061-2.09c-0.953,0-1.889,0.183-2.769,0.568c-0.862,0.367-1.632,0.88-2.273,1.521
		c-0.642,0.697-1.155,1.485-1.54,2.365c-0.367,0.899-0.55,1.834-0.55,2.806v37.643C468.34,279.913,469.018,281.619,470.374,282.994"
		/>
	<path fill-rule="evenodd" clip-rule="evenodd" fill="#FD4400" d="M136.51,269.389c1.1,1.119,1.962,2.384,2.567,3.814
		c0.604,1.448,0.917,2.97,0.917,4.565c0,1.613-0.312,3.135-0.917,4.565c-0.605,1.448-1.467,2.713-2.567,3.813
		c-1.082,1.082-2.347,1.926-3.813,2.53c-1.485,0.605-3.025,0.917-4.621,0.917c-1.577,0-3.099-0.312-4.547-0.917
		c-1.448-0.604-2.713-1.448-3.795-2.53c-1.101-1.101-1.962-2.365-2.604-3.813c-0.623-1.431-0.935-2.952-0.935-4.565
		c0-1.596,0.312-3.117,0.935-4.565c0.642-1.431,1.503-2.695,2.604-3.814c1.082-1.063,2.347-1.907,3.795-2.512
		c1.449-0.605,2.971-0.917,4.547-0.917c1.595,0,3.135,0.312,4.621,0.917C134.163,267.481,135.428,268.325,136.51,269.389
		 M152.114,267.354c-1.394-3.153-3.282-5.903-5.666-8.27c-2.402-2.401-5.189-4.271-8.361-5.592s-6.509-1.98-10.011-1.98
		c-3.557,0-6.912,0.66-10.084,2.018c-3.172,1.338-5.959,3.227-8.397,5.665c-2.439,2.438-4.345,5.244-5.702,8.453
		c-1.357,3.208-2.035,6.582-2.035,10.121c0,3.557,0.678,6.912,2.035,10.103s3.263,5.978,5.702,8.379
		c2.438,2.438,5.226,4.327,8.397,5.666c3.172,1.356,6.528,2.017,10.084,2.017c4.547,0,8.837-1.118,12.89-3.374
		c0.642,1.064,1.466,1.907,2.493,2.494s2.2,0.88,3.521,0.88c1.008,0,1.944-0.184,2.842-0.568c0.899-0.366,1.688-0.898,2.366-1.577
		c1.394-1.394,2.09-3.116,2.09-5.151v-19.289C154.204,273.844,153.489,270.508,152.114,267.354z"/>
</g>
</svg>
